<svg width="187" height="187" viewBox="0 0 187 187" fill="none" xmlns="http://www.w3.org/2000/svg">
<path d="M51.1328 161.677H7.79154V25.3228H51.1328C53.2862 25.3228 55.0288 23.5784 55.0288 21.4268C55.0288 19.2756 53.2862 17.5312 51.1328 17.5312H4.38281C2.22939 17.5312 0 18.7888 0 20.94V165.086C0 167.238 2.22939 169.469 4.38281 169.469H51.1328C53.2862 169.469 55.0288 167.724 55.0288 165.573C55.0288 163.422 53.2862 161.677 51.1328 161.677Z" fill="#EFEFEF"/>
<path d="M183.591 17.5312H136.841C134.688 17.5312 132.945 19.2756 132.945 21.4272C132.945 23.5788 134.688 25.3232 136.841 25.3232H179.208V161.677H136.841C134.688 161.677 132.945 163.422 132.945 165.573C132.945 167.725 134.688 169.469 136.841 169.469H183.591C185.745 169.469 187 167.238 187 165.086V20.94C187 18.7888 185.744 17.5312 183.591 17.5312Z" fill="#EFEFEF"/>
<path d="M46.75 48.6978H19.479V56.4894H46.75V48.6978Z" fill="#EFEFEF"/>
<path d="M46.75 72.0728H19.479V79.8644H46.75V72.0728Z" fill="#EFEFEF"/>
<path d="M46.75 95.4478H19.479V103.239H46.75V95.4478Z" fill="#EFEFEF"/>
<path d="M109.083 48.6978H77.9166V56.4894H109.083V48.6978Z" fill="#EFEFEF"/>
<path d="M109.083 72.0728H77.9166V79.8644H109.083V72.0728Z" fill="#EFEFEF"/>
<path d="M109.083 95.4478H77.9166V103.239H109.083V95.4478Z" fill="#EFEFEF"/>
<path d="M167.521 48.6978H140.25V56.4894H167.521V48.6978Z" fill="#EFEFEF"/>
<path d="M167.521 72.0728H140.25V79.8644H167.521V72.0728Z" fill="#EFEFEF"/>
<path d="M167.521 95.4478H140.25V103.239H167.521V95.4478Z" fill="#EFEFEF"/>
<path d="M125.154 13.6353H62.8203C60.6669 13.6353 58.4375 14.8928 58.4375 17.044V168.982C58.4375 171.133 60.6669 173.364 62.8203 173.364H125.154C127.307 173.364 128.562 171.133 128.562 168.982V17.044C128.562 14.8928 127.307 13.6353 125.154 13.6353ZM120.771 165.573H66.229V21.4272H120.771V165.573H120.771Z" fill="#EFEFEF"/>
<path d="M93.9868 118.336C85.3925 118.336 78.4034 125.327 78.4034 133.919C78.4034 142.512 85.3921 149.503 93.9868 149.503C102.581 149.503 109.57 142.512 109.57 133.919C109.57 125.327 102.582 118.336 93.9868 118.336ZM93.9868 141.711C89.6917 141.711 86.1953 138.216 86.1953 133.919C86.1953 129.622 89.6917 126.128 93.9868 126.128C98.2824 126.128 101.778 129.622 101.778 133.919C101.779 138.216 98.2824 141.711 93.9868 141.711Z" fill="#EFEFEF"/>
</svg>
